# xmcd CD database file
# Copyright (C) 1993-1998 Ti Kan
# 
# Track frame offsets:
#     182
#     10777
#     22127
#     27325
#     38800
#     52635
#     63925
#     72582
#     83312
#     98567
#     113210
#     121472
#     133777
#     156870
#     168760
#     183425
# 
# Disc length: 2590 seconds
# 
# Revision: 1
# Processed by: cddbd v1.4b41PL1 Copyright (c) Steve Scherf et al.
# Submitted via: DiscPlay 4.0.4
# 
DISCID=c40a1c10
DTITLE=Fats Domino - Rockin' With Fats
DYEAR=1900
DGENRE=
TTITLE0=I'm Gonna Be A Wheel Someday
TTITLE1=I Want To Walk You Home
TTITLE2=Whole Lotta Lovin'
TTITLE3=The Fat Man
TTITLE4=BlueBerry Hill
TTITLE5=Ain't That A Sahme
TTITLE6=Be My Guest
TTITLE7=Blue Monday
TTITLE8=Jambalaya
TTITLE9=I'm In Love Again
TTITLE10=Red Sails In The Sunset
TTITLE11=Goin' Home
TTITLE12=Domino Twist
TTITLE13=Let The Four Winds Blow
TTITLE14=I'm In The Mood For Love
TTITLE15=What a Price
EXTD=
EXTT0=
EXTT1=
EXTT2=
EXTT3=
EXTT4=
EXTT5=
EXTT6=
EXTT7=
EXTT8=
EXTT9=
EXTT10=
EXTT11=
EXTT12=
EXTT13=
EXTT14=
EXTT15=
PLAYORDER=
